<?xml version="1.0" encoding="utf-8"?>
<!-- Generator: Adobe Illustrator 22.1.0, SVG Export Plug-In . SVG Version: 6.00 Build 0)  -->
<svg version="1.1" id="Слой_1" xmlns="http://www.w3.org/2000/svg" xmlns:xlink="http://www.w3.org/1999/xlink" x="0px" y="0px"
	 viewBox="0 0 300 300" style="enable-background:new 0 0 300 300;" xml:space="preserve">
<style type="text/css">
	.st0{fill:#00FFFF;stroke:#E46644;stroke-miterlimit:10;}
	.st1{fill:#E46644;stroke:#E46644;stroke-miterlimit:10;}
</style>
<path class="st0" d="M219.3,300H80.7C36.3,300,0,263.7,0,219.3V80.7C0,36.3,36.3,0,80.7,0h138.6C263.7,0,300,36.3,300,80.7v138.6
	C300,263.7,263.7,300,219.3,300z"/>
<path class="st1" d="M266.9,200.5c-0.1,0.2-0.2,0.4-0.2,0.6c-0.3,5.8-2.2,11.3-5.1,16.6c-4.6,8.3-11.7,15.1-20.8,20.6
	c-8,4.9-16.9,8.4-26.3,11c-7.6,2.1-15.3,3.5-23.2,4.5c-13.1,1.6-26.3,1.9-39.6,1.4c-0.2,0-0.3,0-0.6,0c0,0.2-0.1,0.4-0.1,0.6
	c0,2.7,0,5.4,0,8.1c0,0.4,0.1,0.7,0.6,0.9c4,1.7,8.1,3.3,12.5,4.1c3.1,0.6,6.3,0.7,9.4-0.1c3.4-0.8,6-2.5,8.1-4.7
	c0.6-0.6,1.1-1.2,1.7-1.9c0,0.2,0.1,0.4,0.1,0.5c-0.1,2.1-0.7,4.2-1.8,6.1c-2.1,3.6-5.7,5.7-10.4,6.6c-3.5,0.7-7,0.8-10.5,0.6
	c-5.3-0.3-10.4-1.2-15.4-2.3c-0.3-0.1-0.5-0.2-0.8-0.2c0-36.9,0-73.7,0-110.7c-0.3,0.2-0.5,0.2-0.6,0.3c-2.2,1.9-3.8,4.1-5.2,6.4
	c-0.1,0.2-0.1,0.4-0.2,0.7c0,0.3,0,0.6,0,0.9c0,33.1,0,66.2,0,99.3c0,0.4,0,0.8,0,1.3c-0.5-0.2-0.8-0.2-1.2-0.4
	c-5.9-1.9-11.9-3.4-18.1-4.2c-4.9-0.6-9.8-0.8-14.7-0.1c-2.3,0.4-4.4,0.9-6.4,1.8c-4.6,2.2-6.8,5.8-6.1,10c0.3,1.6,0.9,3.2,1.6,4.8
	c-0.2-0.1-0.3-0.2-0.5-0.4c-2.6-2.7-4.3-5.7-4.2-9.2c0-2.4,0.9-4.7,2.4-6.8c1.7-2.3,3.9-4.3,6.6-5.9c5-3,10.7-4.7,16.9-5.2
	c3.9-0.3,7.8-0.1,11.6,0.7c0.3,0.1,0.5,0.1,0.9,0.1c0-1.5,0-3,0-4.5c-1.4-0.7-3-1-4.7-1.2c-5.2-0.7-10.2,0-15.1,1.5
	c-5.1,1.6-9.5,3.9-13.3,7c-0.2,0.2-0.4,0.4-0.8,0.6c0.7-3.4,2.3-6.5,4.9-9.2c2.6-2.7,5.9-4.7,10.1-6.2c-0.5-0.2-0.9-0.4-1.2-0.6
	c-16.3-7.4-29.5-17.4-39.5-30c-4.9-6.3-8.6-13-10.7-20.2c-1.4-4.9-2-9.9-1.5-14.9c0.9-9.2,5-17.4,12.2-24.6c3.6-3.7,7.7-7,12.4-9.7
	c4.8-2.8,10-4.8,15.9-5.6c5.8-0.8,11.5-0.4,16.9,1.6c1.6,0.6,3.1,1.3,4.4,2.3c4.2,3,5.9,6.6,4.1,11.1c0.2,0.1,0.5,0.2,0.7,0.4
	c0.8,0.7,1.7,1.3,2.4,2.1c1.7,1.7,1.9,3.7,1.3,5.8c-0.8,2.9-2.5,5.4-4.7,7.8c-1.9,1.9-4,3.6-6.3,5.3c-1.9,1.4-3.8,2.6-5.7,4
	c-1.8,1.3-3.4,2.7-5.1,4.2c-1.1,0.9-1.9,2.1-2.5,3.3c-0.4,0.7-0.6,1.5-0.4,2.3c0.3,1.2,1.4,2,2.9,2.2c2.4,0.3,4.4-0.5,5.6-2.2
	c0-0.1,0.1-0.1,0.2-0.3c0.2,0.7,0,1.3-0.2,1.9c-1.1,4-6.3,7.3-11.5,7.3c-2.9,0-5.2-0.9-6.9-2.7c-1.4-1.4-2-3-2.5-4.8
	c-0.5-1.9-0.2-3.8,0.5-5.6c0.9-2.1,2.1-4,3.4-6c1.5-2.2,3.1-4.4,4.6-6.6c1-1.4,1.9-2.9,2.3-4.5c0.1-0.3,0.1-0.6,0.1-0.8
	c0-1.1-0.6-1.8-2-2.2c-1.5-0.4-3.1-0.4-4.6-0.1c-1.8,0.4-3.4,1.1-4.8,2.1c-2.1,1.4-3.7,3.1-5.1,4.9c-2.6,3.5-4.3,7.3-5.5,11.2
	c-1.5,4.9-2,9.9-1.7,14.9c0.5,6.8,2.7,13.1,7.3,18.9c2.6,3.2,5.3,6.4,8.7,9.2c3.8,3.1,8.3,5.6,13.1,7.6c5.5,2.3,11.3,4,17.1,5.6
	c1.6,0.4,3.2,0.9,5,1.4c0-0.4,0-0.8,0-1.1c0-13.6,0-27.2,0-40.8c0-21.3,0-42.5,0-63.8c0-0.2,0-0.5,0-0.7c0.1-0.4-0.2-0.6-0.6-0.8
	c-0.3-0.1-0.5-0.2-0.7-0.3c-6.5-3-13-6-19.1-9.4c-6.2-3.4-12-7.2-17.1-11.7c-7.2-6.3-12.3-13.5-14.7-21.8
	c-1.5-5.2-2.1-10.5-1.5-15.9c1.2-11.2,7.6-20.3,18.5-27.3c6.8-4.4,14.6-7.5,23-9.7c4-1,8-1.8,12.1-2.4c0.8-0.1,1.1-0.4,1.4-1
	c3.6-8.6,10.9-14.3,21.8-17.1c4.5-1.1,9-1.4,13.6-0.6c2,0.3,4,1,5.7,1.9c3.5,1.9,5.1,4.7,5.1,8c0,1.8-0.5,3.4-1.2,5.1
	c0,0.1-0.1,0.1-0.2,0.3c-0.1-0.3-0.2-0.4-0.3-0.6c-0.4-0.6-0.7-1.3-1.1-1.9c-1.9-2.5-5-3.6-8.6-2.9c-2.8,0.6-5.1,1.8-7,3.5
	c-1.4,1.2-2.5,2.5-3.2,4.1c0.4,0,0.7,0.1,1.1,0.1c4.1,0.1,8.1,0.4,12.1,0.9c9.6,1.1,19,2.8,27.7,6.1c16.5,6.2,27.4,16.4,33.3,30.1
	c2.5,5.9,3.5,12,3,18.2c-0.7,9.1-4,17.6-10.4,25.2c-7,8.2-16.5,13.7-28.3,16.8c-2,0.5-4,0.9-6.1,1.4c-0.2,0-0.4,0.1-0.8,0.2
	c1.8,0.3,3.3,0.5,4.8,0.8c4.5,0.8,8.8,1.8,13.2,3c3,0.8,6.1,1.5,9,2.3c13.2,3.8,24.8,9.7,34.4,17.8c9.1,7.7,15.5,16.6,18.8,26.9
	c1,3.1,1.8,6.3,1.9,9.6c0,0.2,0.1,0.5,0.2,0.7C266.9,196.4,266.9,198.5,266.9,200.5z M151.1,159.2c-0.2,2.7-0.1,82.4,0.1,83.1
	c1-0.2,1.9-0.3,2.9-0.5c1.4-0.3,2.8-0.7,4.2-1.1c13.4-4.4,24.4-11.3,32.7-20.8c8.2-9.4,11.8-19.9,10.3-31.3
	c-0.9-7.1-4-13.5-9.1-19.4c-4.2-4.7-9.4-8.7-15.1-12.3c-7.3-4.5-15.2-8.3-23.4-11.8c-0.8-0.3-1.7-0.6-2.5-1c0,2.9,0,5.6,0,8.5
	c3.7-0.2,7,0.6,10,2.4c2.8,1.7,5.6,5,5.9,6.7C162.7,157.4,155.3,157.6,151.1,159.2z M200.6,100.9c-0.4,0.3-0.7,0.5-1,0.7
	c-2.3,1.8-4.7,3.5-7.5,4.8c-8.3,4.1-16.7,4-25.2,0.5c-5.3-2.2-8.6-5.7-10.2-10.3c-1.1-3.2-1.2-6.4-0.4-9.6c0.5-2,1.3-4,2.7-5.7
	c0.7-0.9,1.6-1.8,2.7-2.4c1.4-0.8,2.9-1,4.5-0.5c0.1,0,0.3,0.1,0.4,0.1c0.6-1,1.1-2,1.1-3c0.1-1.7-0.9-2.8-2.9-3.2
	c-0.4-0.1-0.8-0.2-1.1-0.2c-1.1,0-2.2,0-3.4,0c0.2-0.3,0.2-0.4,0.4-0.6c1.4-1.8,3.1-3.5,5.1-4.9c2.3-1.7,4.9-2.8,8-3.3
	c1-0.2,2-0.3,3.1-0.4c7.8-0.8,14.9,4.2,15,10.5c0,2-0.6,3.8-1.7,5.6c-1.6,2.7-3.9,5-6.8,6.8c-2.4,1.5-4.8,3.2-6.9,5
	c-1.3,1.1-2.4,2.3-3.3,3.7c-1.4,2.4-1,4.5,1.4,6.4c0.6,0.5,1.4,0.8,2.1,1.1c2.2,0.9,4.5,1,6.9,0.7c3.2-0.5,5.9-1.8,8.2-3.6
	c5.5-4.4,8.8-9.7,9.5-16c0.1-1,0.2-2.1,0-3.1c-1.3-5.6-3.7-10.8-7.3-15.7c-2.1-2.7-4.4-5.3-7.4-7.5c-3.4-2.5-7.1-4.6-11.1-6.3
	c-0.9-0.4-1.9-0.7-2.8-1c-5.7-1.7-11.6-2.2-17.6-1.7c-1.3,0.1-2.6,0.3-3.9,0.4c0,26.7,0,53.2,0,79.9c0.6,0.1,1.2,0.2,1.8,0.3
	c4.7,0.1,9.4-0.2,14-1c6.6-1.1,12.8-3.2,18.1-6.6c8-5,12.8-11.5,15.5-19.2C200.6,101.3,200.5,101.2,200.6,100.9z M127.4,116.8
	c0.2-1.9,0.1-64.1-0.1-64.7c-0.6-0.1-1.2,0.1-1.7,0.4c-1,0.7-2.1,1.3-3.1,2c-11.1,7.5-17,17-17.4,28.6c-0.2,4.7,1.1,9.3,3.3,13.7
	c4,7.9,10.4,14.4,18.5,19.8C127,116.6,127.2,116.7,127.4,116.8z M167.1,138.1c0,0.1,0,0.1,0,0.2c0.5,0.2,1,0.5,1.5,0.7
	c7.3,3.4,14.3,7.1,20.8,11.5c6.4,4.3,12.1,9.2,16.7,14.8c5.9,7.2,9.5,14.9,10.1,23.6c0,0.5,0.1,1.1,0.2,1.6c1-3.6,2.7-6.9,6-9.5
	c3.3-2.6,7.4-3.9,11.9-4.6c0-0.2,0-0.3,0-0.3c-0.3-0.8-0.6-1.5-0.9-2.3c-2.6-5.6-6.6-10.5-11.6-14.9c-7-6.1-15.4-10.8-24.9-14.2
	c-8.3-3.1-17-5-26-6.2C169.5,138.4,168.3,138.3,167.1,138.1z M157.5,246.3c6.7,0.1,13.4-0.3,20-1.2c7.4-1,14.7-2.7,21.5-5.2
	c8.7-3.2,16.4-7.5,22.7-13.4c3.3-3.2,6-6.6,7.9-10.5c0.6-1.2,0.3-2-0.7-2.9c-0.5-0.4-0.9-0.8-1.5-1.1c-2.1-1.4-4.5-2.3-7.1-2.8
	c-3.7-0.7-7,0.1-9.9,2c-0.1,0.1-0.1,0.2-0.2,0.3c-0.7,1.2-1.4,2.5-2.2,3.7c-7.1,10.3-17.2,18.3-29.6,24.4c-5.7,2.8-11.8,5-18.4,6.2
	C159.2,246.1,158.4,246.2,157.5,246.3z M148.4,26.7c-0.3,0-0.4-0.1-0.5-0.1c-3.6,0.1-6.3,1.4-8,4c-0.9,1.4-1.3,2.9-1.3,4.4
	c0,29,0,57.9,0,86.9c0,0.2,0,0.3,0,0.5c-0.1,0.5,0.2,0.7,0.7,1c1.5,0.6,3,1.3,4.5,1.9c0.2,0.1,0.4,0.1,0.7,0.2c0-0.5,0-0.8,0-1.2
	c0-29.6,0-59.3,0-88.9c0-1.2,0.1-2.3,0.2-3.5c0.2-1.9,1.2-3.6,3.1-4.8C147.9,27,148.1,26.9,148.4,26.7z M212.7,207.1
	c0.1,0,0.1,0,0.2,0.1c0.2-0.3,0.5-0.6,0.7-0.8c2.1-2.3,4.7-4.1,8.2-5c3-0.8,6.1-0.9,9.2-0.7c1.2,0.1,2.4,0.3,3.5,0.4
	c0.1-0.1,0.2-0.2,0.2-0.3c0.1-0.3,0.2-0.5,0.3-0.8c0.9-2.7,1.2-5.5,1.2-8.3c0-0.3,0-0.6-0.1-0.9c-0.1-0.2-0.2-0.4-0.4-0.5
	c-1.7-1-3.6-1.7-5.8-1.8c-2.9-0.2-5.4,0.7-7.7,2c-2.4,1.3-4.3,3-6,4.8c-0.2,0.3-0.4,0.6-0.4,0.9c-0.5,3.5-1.4,6.9-2.8,10.2
	C212.9,206.6,212.8,206.9,212.7,207.1z M138.7,138.9c-0.2,1-0.2,17.3,0,17.9c1.9-1,3.8-2,5.7-3c0-4.1,0-8.3,0-12.5
	C142.5,140.5,140.7,139.8,138.7,138.9z"/>
</svg>
