<?xml version="1.0" encoding="utf-8"?>
<!-- Generator: Adobe Illustrator 22.1.0, SVG Export Plug-In . SVG Version: 6.00 Build 0)  -->
<svg version="1.1" id="Слой_2_1_" xmlns="http://www.w3.org/2000/svg" xmlns:xlink="http://www.w3.org/1999/xlink" x="0px"
	 y="0px" viewBox="0 0 1156.8 662.5" style="enable-background:new 0 0 1156.8 662.5;" xml:space="preserve">
<style type="text/css">
	.st0{fill:url(#SVGID_1_);}
	.st1{fill:url(#SVGID_2_);}
	.st2{fill:url(#SVGID_3_);}
	.st3{fill:url(#SVGID_4_);}
	.st4{fill:url(#SVGID_5_);}
	.st5{fill:url(#SVGID_6_);}
	.st6{fill:url(#SVGID_7_);}
	.st7{fill:url(#SVGID_8_);}
	.st8{fill:url(#SVGID_9_);}
	.st9{fill:#ABABAB;}
	.st10{font-family:'ArialMT';}
	.st11{font-size:16.4012px;}
	.st12{fill:#161616;stroke:#000000;stroke-miterlimit:10;}
</style>
<path d="M1016.4,0H140.2C123,0,109,14,109,31.2v585.4c0,14.1,11.4,25.5,25.5,25.5H1022c14.1,0,25.5-11.4,25.5-25.5V31.2
	C1047.5,14,1033.6,0,1016.4,0z M1020.5,578.6H140.9V39.2h879.6V578.6z"/>
<linearGradient id="SVGID_1_" gradientUnits="userSpaceOnUse" x1="0" y1="22.6994" x2="578.7" y2="22.6994" gradientTransform="matrix(1 0 0 -1 0 661.9993)">
	<stop  offset="0" style="stop-color:#1C1C1C"/>
	<stop  offset="2.000000e-02" style="stop-color:#B2B2B2"/>
	<stop  offset="5.000000e-02" style="stop-color:#787878"/>
	<stop  offset="7.001752e-02" style="stop-color:#898989"/>
	<stop  offset="0.1157" style="stop-color:#ADADAD"/>
	<stop  offset="0.2179" style="stop-color:#B5B5B5"/>
	<stop  offset="0.7238" style="stop-color:#D6D6D6"/>
	<stop  offset="1" style="stop-color:#E3E3E3"/>
</linearGradient>
<rect y="628.3" class="st0" width="578.7" height="22"/>
<linearGradient id="SVGID_2_" gradientUnits="userSpaceOnUse" x1="500.9671" y1="15.5738" x2="576.8297" y2="37.3269" gradientTransform="matrix(1 0 0 -1 0 661.9993)">
	<stop  offset="0" style="stop-color:#383838"/>
	<stop  offset="0.1763" style="stop-color:#BDBDBD"/>
	<stop  offset="0.2381" style="stop-color:#C1C1C1"/>
	<stop  offset="0.4397" style="stop-color:#C8C8C8"/>
	<stop  offset="1" style="stop-color:#C9C9C9"/>
</linearGradient>
<path class="st1" d="M578.3,642.1H509c-6.8,0-12.3-5.5-12.3-12.3l0,0h81.6V642.1z"/>
<linearGradient id="SVGID_3_" gradientUnits="userSpaceOnUse" x1="289.15" y1="-0.532" x2="289.15" y2="11.668" gradientTransform="matrix(1 0 0 -1 0 661.9993)">
	<stop  offset="0" style="stop-color:#000000"/>
	<stop  offset="0.2278" style="stop-color:#2C2C2C"/>
	<stop  offset="0.45" style="stop-color:#4F4F4F"/>
	<stop  offset="0.6584" style="stop-color:#686868"/>
	<stop  offset="0.8475" style="stop-color:#787878"/>
	<stop  offset="1" style="stop-color:#7D7D7D"/>
</linearGradient>
<path class="st2" d="M578.3,662.5H32.9C26.2,662.5,0,657,0,650.3l0,0h578.3V662.5z"/>
<linearGradient id="SVGID_4_" gradientUnits="userSpaceOnUse" x1="-540.1329" y1="22.6994" x2="38.5671" y2="22.6994" gradientTransform="matrix(-1 0 0 -1 616.6671 661.9993)">
	<stop  offset="0" style="stop-color:#1C1C1C"/>
	<stop  offset="2.000000e-02" style="stop-color:#B2B2B2"/>
	<stop  offset="5.000000e-02" style="stop-color:#787878"/>
	<stop  offset="7.001752e-02" style="stop-color:#898989"/>
	<stop  offset="0.1157" style="stop-color:#ADADAD"/>
	<stop  offset="0.2179" style="stop-color:#B5B5B5"/>
	<stop  offset="0.7238" style="stop-color:#D6D6D6"/>
	<stop  offset="1" style="stop-color:#E3E3E3"/>
</linearGradient>
<polygon class="st3" points="578.1,650.3 1156.8,650.3 1156.8,628.3 578.1,628.3 "/>
<linearGradient id="SVGID_5_" gradientUnits="userSpaceOnUse" x1="-14.6658" y1="15.5738" x2="61.1968" y2="37.3269" gradientTransform="matrix(-1 0 0 -1 640.6671 661.9993)">
	<stop  offset="0" style="stop-color:#383838"/>
	<stop  offset="0.1763" style="stop-color:#BDBDBD"/>
	<stop  offset="0.2381" style="stop-color:#C1C1C1"/>
	<stop  offset="0.4397" style="stop-color:#C8C8C8"/>
	<stop  offset="1" style="stop-color:#C9C9C9"/>
</linearGradient>
<path class="st4" d="M578,642.1h69.3c6.8,0,12.3-5.5,12.3-12.3l0,0H578V642.1z"/>
<radialGradient id="SVGID_6_" cx="577.0273" cy="643.129" r="8.974" gradientTransform="matrix(1.0243 0 0 -1.0243 -12.7491 679.4825)" gradientUnits="userSpaceOnUse">
	<stop  offset="0" style="stop-color:#474747;stop-opacity:0.45"/>
	<stop  offset="0.3274" style="stop-color:#282523;stop-opacity:0.71"/>
</radialGradient>
<circle class="st5" cx="578.3" cy="20.7" r="9.2"/>
<linearGradient id="SVGID_7_" gradientUnits="userSpaceOnUse" x1="-295.1494" y1="-0.532" x2="-295.1494" y2="11.668" gradientTransform="matrix(-1 0 0 -1 572.3006 661.9993)">
	<stop  offset="0" style="stop-color:#000000"/>
	<stop  offset="0.2278" style="stop-color:#2C2C2C"/>
	<stop  offset="0.45" style="stop-color:#4F4F4F"/>
	<stop  offset="0.6584" style="stop-color:#686868"/>
	<stop  offset="0.8475" style="stop-color:#787878"/>
	<stop  offset="1" style="stop-color:#7D7D7D"/>
</linearGradient>
<path class="st6" d="M578.3,662.5h545.4c6.7,0,32.9-5.5,32.9-12.2l0,0H578.3V662.5z"/>
<linearGradient id="SVGID_8_" gradientUnits="userSpaceOnUse" x1="575.8027" y1="33.6731" x2="575.8027" y2="46.0869" gradientTransform="matrix(1 0 0 -1 0 661.9993)">
	<stop  offset="0" style="stop-color:#0A0A0A"/>
	<stop  offset="0.991" style="stop-color:#2E2E2E"/>
</linearGradient>
<path class="st7" d="M942.4,628.3H209.2c-1.6,0-2.8-1.3-2.8-2.8v-6.7c0-1.6,1.3-2.8,2.8-2.8h733.2c1.6,0,2.8,1.3,2.8,2.8v6.7
	C945.3,627.1,944,628.3,942.4,628.3z"/>
<linearGradient id="SVGID_9_" gradientUnits="userSpaceOnUse" x1="572.6614" y1="649.2661" x2="583.1752" y2="633.6785" gradientTransform="matrix(1 0 0 -1 0 661.9993)">
	<stop  offset="0.2687" style="stop-color:#000000;stop-opacity:0.77"/>
	<stop  offset="1" style="stop-color:#2E2E2E;stop-opacity:0.64"/>
</linearGradient>
<circle class="st8" cx="577.9" cy="20.5" r="9.4"/>
<text transform="matrix(1.0474 0 0 1 546.1875 602.1713)" class="st9 st10 st11">MacBook</text>
<rect x="140.9" y="39.2" class="st12" width="879.6" height="539.4"/>
</svg>
