<?xml version="1.0" encoding="utf-8"?>
<!-- Generator: Adobe Illustrator 22.1.0, SVG Export Plug-In . SVG Version: 6.00 Build 0)  -->
<svg version="1.1" xmlns="http://www.w3.org/2000/svg" xmlns:xlink="http://www.w3.org/1999/xlink" x="0px" y="0px"
	 viewBox="0 0 1366 768" style="enable-background:new 0 0 1366 768;" xml:space="preserve">
<style type="text/css">
	.st0{display:none;}
	.st1{display:inline;}
</style>
<g id="Слой_1">
	
		<image style="overflow:visible;" width="5000" height="2813" xlink:href="../../../../../Documents/Влад-Сузд/Zolotvorot.jpg"  transform="matrix(0.273 0 0 0.273 0 0)">
	</image>
</g>
<g id="Слой_2" class="st0">
	<path class="st1" d="M756,300c1.3-0.3,2.7-0.7,4-1l31-32c0,0-30,1-33-6s-9-8-10-16s-30-13-30-13l-63-5c0,0-11,2-14,8s-6,13-12,15
		s-31,4-33-4s-5,2,5,12s15,19,15,19l4-19l134,10L756,300z"/>
</g>
</svg>
